<?xml version="1.0" standalone="no"?><!-- Generator: Gravit.io --><svg xmlns="http://www.w3.org/2000/svg" xmlns:xlink="http://www.w3.org/1999/xlink" style="isolation:isolate" viewBox="0 0 215 80" width="215" height="80"><defs><clipPath id="_clipPath_QgNTvh590KFR97b86HxSja4yVdRouUZc"><rect width="215" height="80"/></clipPath></defs><g clip-path="url(#_clipPath_QgNTvh590KFR97b86HxSja4yVdRouUZc)"><g transform="matrix(1,0,0,1,0,0)"><text transform="matrix(1,0,0,1,0,60.94)" style="font-family:'Overpass';font-weight:100;font-size:60px;font-style:normal;fill:#a83535;stroke:none;">O</text></g><g transform="matrix(1,0,0,1,38,0)"><text transform="matrix(1,0,0,1,0,60.94)" style="font-family:'Overpass';font-weight:100;font-size:60px;font-style:normal;fill:#a83535;stroke:none;">A</text></g><g transform="matrix(1,0,0,1,73,0)"><text transform="matrix(1,0,0,1,2.62,60.94)" style="font-family:'Overpass';font-weight:100;font-size:60px;font-style:normal;fill:#a83535;stroke:none;">X</text></g><g transform="matrix(1,0,0,1,106,0)"><text transform="matrix(1,0,0,1,0,60.94)" style="font-family:'Overpass';font-weight:100;font-size:60px;font-style:normal;fill:#a83535;stroke:none;">A</text></g><g transform="matrix(1,0,0,1,142,0)"><text transform="matrix(1,0,0,1,0,60.94)" style="font-family:'Overpass';font-weight:100;font-size:60px;font-style:normal;fill:#a83535;stroke:none;">C</text></g><g transform="matrix(1,0,0,1,177,0)"><text transform="matrix(1,0,0,1,0,60.94)" style="font-family:'Overpass';font-weight:100;font-size:60px;font-style:normal;fill:#a83535;stroke:none;">A</text></g><line x1="4" y1="74" x2="213" y2="74" vector-effect="non-scaling-stroke" stroke-width="1" stroke="rgb(168,53,53)" stroke-linejoin="miter" stroke-linecap="square" stroke-miterlimit="3"/></g></svg>